<?xml version="1.0" encoding="utf-8"?>
<!-- Generator: Adobe Illustrator 18.0.0, SVG Export Plug-In . SVG Version: 6.00 Build 0)  -->
<!DOCTYPE svg PUBLIC "-//W3C//DTD SVG 1.1//EN" "http://www.w3.org/Graphics/SVG/1.1/DTD/svg11.dtd">
<svg version="1.1" id="레이어_1" xmlns="http://www.w3.org/2000/svg" xmlns:xlink="http://www.w3.org/1999/xlink" x="0px"
	 y="0px" viewBox="0 0 150.5 100.2" enable-background="new 0 0 150.5 100.2" xml:space="preserve">
<rect x="0.1" y="0.1" opacity="0.2" fill="#333333" stroke="#BBBDBF" stroke-width="0.25" stroke-miterlimit="10" width="150.3" height="100"/>
<g id="_x31__13_">
	<g>
		<path fill="#FFFFFF" d="M87.5,36c-1-0.6-2.2-0.2-2.8,0.7l-13,22.6l-7.3-6.7c-0.8-0.8-2.1-0.9-2.9-0.1c-0.8,0.8-0.9,2.1-0.1,2.9
			l9.3,8.6c0.8,0.8,2.1,0.9,2.9,0.1c0.2-0.2,14.6-25.3,14.6-25.3C88.8,37.8,88.5,36.6,87.5,36z M75.3,17.5
			c-18,0-32.6,14.6-32.6,32.6c0,18,14.6,32.6,32.6,32.6c18,0,32.6-14.6,32.6-32.6C107.9,32.1,93.3,17.5,75.3,17.5z M75.3,78.6
			c-15.8,0-28.5-12.8-28.5-28.5c0-15.8,12.8-28.5,28.5-28.5c15.8,0,28.5,12.8,28.5,28.5C103.8,65.9,91,78.6,75.3,78.6z"/>
	</g>
</g>
</svg>
