<?xml version="1.0" encoding="utf-8"?>
<!-- Generator: Adobe Illustrator 18.0.0, SVG Export Plug-In . SVG Version: 6.00 Build 0)  -->
<!DOCTYPE svg PUBLIC "-//W3C//DTD SVG 1.1//EN" "http://www.w3.org/Graphics/SVG/1.1/DTD/svg11.dtd">
<svg version="1.1" id="레이어_1" xmlns="http://www.w3.org/2000/svg" xmlns:xlink="http://www.w3.org/1999/xlink" x="0px"
	 y="0px" viewBox="0 0 150.5 100.2" enable-background="new 0 0 150.5 100.2" xml:space="preserve">
<rect x="0.1" y="0.1" opacity="0.2" fill="#333333" stroke="#BBBDBF" stroke-width="0.25" stroke-miterlimit="10" width="150.3" height="100"/>
<g id="_x31__6_">
	<g>
		<path fill="#FFFFFF" d="M75.3,12.4c-18,0-32.6,14.6-32.6,32.6c0,18,14.6,32.6,32.6,32.6c18,0,32.6-14.6,32.6-32.6
			C107.9,27,93.3,12.4,75.3,12.4z M75.3,73.5c-15.8,0-28.5-12.8-28.5-28.5c0-15.8,12.8-28.5,28.5-28.5c15.8,0,28.5,12.8,28.5,28.5
			C103.8,60.7,91,73.5,75.3,73.5z"/>
	</g>
</g>
<g>
	<path fill="#FFFFFF" d="M70.4,50.3c0,1.3,0.2,2.3,0.6,3.2c0.8,1.5,2.1,2.3,4.1,2.3c1.2,0,2.3-0.4,3.2-1.3c0.9-0.8,1.4-2.1,1.4-3.6
		c0-2.1-0.8-3.5-2.5-4.2c-1-0.4-2.5-0.6-4.6-0.6v-4.5c2,0,3.4-0.2,4.3-0.6c1.4-0.6,2.1-1.9,2.1-3.7c0-1.2-0.4-2.2-1.1-3
		c-0.7-0.8-1.7-1.1-3-1.1c-1.5,0-2.6,0.5-3.3,1.4c-0.7,0.9-1,2.2-1,3.8h-5.9c0.1-1.6,0.3-3.1,0.8-4.5c0.5-1.2,1.3-2.4,2.4-3.5
		c0.8-0.7,1.8-1.3,2.9-1.7c1.1-0.4,2.5-0.6,4.2-0.6c3,0,5.5,0.8,7.4,2.4c1.9,1.6,2.8,3.7,2.8,6.3c0,1.9-0.6,3.5-1.7,4.8
		c-0.7,0.8-1.4,1.4-2.2,1.7c0.6,0,1.4,0.5,2.5,1.5c1.6,1.5,2.4,3.5,2.4,6.1c0,2.7-0.9,5.1-2.8,7.1c-1.9,2-4.6,3.1-8.3,3.1
		c-4.5,0-7.7-1.5-9.4-4.4c-0.9-1.6-1.4-3.6-1.5-6.2H70.4z"/>
</g>
</svg>
