<?xml version="1.0" encoding="utf-8"?>
<!-- Generator: Adobe Illustrator 18.0.0, SVG Export Plug-In . SVG Version: 6.00 Build 0)  -->
<!DOCTYPE svg PUBLIC "-//W3C//DTD SVG 1.1//EN" "http://www.w3.org/Graphics/SVG/1.1/DTD/svg11.dtd">
<svg version="1.1" id="레이어_1" xmlns="http://www.w3.org/2000/svg" xmlns:xlink="http://www.w3.org/1999/xlink" x="0px"
	 y="0px" viewBox="0 0 150.5 100.2" enable-background="new 0 0 150.5 100.2" xml:space="preserve">
<rect x="0.1" y="0.1" opacity="0.2" fill="#333333" stroke="#BBBDBF" stroke-width="0.25" stroke-miterlimit="10" width="150.3" height="100"/>
<g id="_x31__10_">
	<g>
		<path fill="#FFFFFF" d="M75.3,12.4c-18,0-32.6,14.6-32.6,32.6c0,18,14.6,32.6,32.6,32.6S107.9,63,107.9,45
			C107.9,27,93.3,12.4,75.3,12.4z M75.3,73.5c-15.8,0-28.5-12.8-28.5-28.5c0-15.8,12.8-28.5,28.5-28.5s28.5,12.8,28.5,28.5
			C103.8,60.7,91,73.5,75.3,73.5z"/>
	</g>
</g>
<g>
	<path fill="#FFFFFF" d="M70.5,51.5c0.2,1.4,0.7,2.4,1.4,3.2c0.7,0.7,1.7,1.1,3.1,1.1c1.6,0,2.7-0.5,3.5-1.6
		c0.8-1.1,1.2-2.5,1.2-4.1c0-1.6-0.4-3-1.1-4.1c-0.8-1.1-1.9-1.7-3.6-1.7c-0.8,0-1.4,0.1-2,0.3c-1,0.4-1.7,1-2.2,2l-5.6-0.3
		l2.2-17.6H85v5.3H72l-1.1,7c1-0.6,1.7-1,2.3-1.3c0.9-0.3,2-0.5,3.3-0.5c2.6,0,4.9,0.9,6.9,2.7c2,1.8,2.9,4.4,2.9,7.7
		c0,2.9-0.9,5.6-2.8,7.9c-1.9,2.3-4.7,3.5-8.5,3.5c-3,0-5.5-0.8-7.5-2.4c-1.9-1.6-3-3.9-3.3-6.9H70.5z"/>
</g>
</svg>
