<?xml version="1.0" encoding="utf-8"?>
<!-- Generator: Adobe Illustrator 18.0.0, SVG Export Plug-In . SVG Version: 6.00 Build 0)  -->
<!DOCTYPE svg PUBLIC "-//W3C//DTD SVG 1.1//EN" "http://www.w3.org/Graphics/SVG/1.1/DTD/svg11.dtd">
<svg version="1.1" id="레이어_1" xmlns="http://www.w3.org/2000/svg" xmlns:xlink="http://www.w3.org/1999/xlink" x="0px"
	 y="0px" viewBox="0 0 150.5 100.2" enable-background="new 0 0 150.5 100.2" xml:space="preserve">
<rect x="0.1" y="0.1" opacity="0.2" fill="#333333" stroke="#BBBDBF" stroke-width="0.25" stroke-miterlimit="10" width="150.3" height="100"/>
<g>
	<g id="_x31__3_">
		<g>
			<path fill="#FFFFFF" d="M75.3,12.4c-18,0-32.6,14.6-32.6,32.6c0,18,14.6,32.6,32.6,32.6c18,0,32.6-14.6,32.6-32.6
				C107.9,27,93.3,12.4,75.3,12.4z M75.3,73.5c-15.8,0-28.5-12.8-28.5-28.5c0-15.8,12.8-28.5,28.5-28.5c15.8,0,28.5,12.8,28.5,28.5
				C103.8,60.7,91,73.5,75.3,73.5z"/>
		</g>
	</g>
	<g>
		<path fill="#FFFFFF" d="M65,53.8c0.9-2.1,3-4.4,6.3-6.8c2.9-2.1,4.8-3.5,5.6-4.4c1.3-1.4,2-2.9,2-4.6c0-1.3-0.4-2.5-1.1-3.4
			c-0.7-0.9-1.8-1.3-3.2-1.3c-1.9,0-3.2,0.7-3.9,2.1c-0.4,0.8-0.6,2.1-0.7,3.9h-6.1c0.1-2.7,0.6-4.9,1.5-6.6C67,29.6,70,28,74.2,28
			c3.4,0,6.1,0.9,8.1,2.8c2,1.9,3,4.3,3,7.4c0,2.4-0.7,4.5-2.1,6.3c-0.9,1.2-2.4,2.6-4.6,4.1l-2.5,1.8c-1.6,1.1-2.6,1.9-3.2,2.4
			c-0.6,0.5-1.1,1.1-1.5,1.7h13.9v5.5H63.5C63.6,57.8,64,55.7,65,53.8z"/>
	</g>
</g>
</svg>
