<?xml version="1.0" encoding="utf-8"?>
<!-- Generator: Adobe Illustrator 18.0.0, SVG Export Plug-In . SVG Version: 6.00 Build 0)  -->
<!DOCTYPE svg PUBLIC "-//W3C//DTD SVG 1.1//EN" "http://www.w3.org/Graphics/SVG/1.1/DTD/svg11.dtd">
<svg version="1.1" id="레이어_1" xmlns="http://www.w3.org/2000/svg" xmlns:xlink="http://www.w3.org/1999/xlink" x="0px"
	 y="0px" viewBox="0 0 150.5 100.2" enable-background="new 0 0 150.5 100.2" xml:space="preserve">
<rect x="0.1" y="0.1" opacity="0.2" fill="#333333" stroke="#BBBDBF" stroke-width="0.25" stroke-miterlimit="10" width="150.3" height="100"/>
<g id="_x31__8_">
	<g>
		<path fill="#FFFFFF" d="M75.3,12.4c-18,0-32.6,14.6-32.6,32.6c0,18,14.6,32.6,32.6,32.6c18,0,32.6-14.6,32.6-32.6
			C107.9,27,93.3,12.4,75.3,12.4z M75.3,73.5c-15.8,0-28.5-12.8-28.5-28.5c0-15.8,12.8-28.5,28.5-28.5c15.8,0,28.5,12.8,28.5,28.5
			C103.8,60.7,91,73.5,75.3,73.5z"/>
	</g>
</g>
<g>
	<path fill="#FFFFFF" d="M86.4,53.2h-3.6v6.9h-6.1v-6.9H64.1v-5.5l11.7-19.4h7v19.9h3.6V53.2z M76.7,48.3V34.6l-8,13.7H76.7z"/>
</g>
</svg>
